<svg xmlns="http://www.w3.org/2000/svg" viewBox="0 0 1200 675" role="img" aria-labelledby="title desc">
  <title id="title">Khatma series placeholder</title>
  <desc id="desc">An open Quran on a soft green background</desc>
  <defs>
    <linearGradient id="bg" x1="0" y1="0" x2="1" y2="1">
      <stop offset="0" stop-color="#eaf5ef"/>
      <stop offset="1" stop-color="#cfe8da"/>
    </linearGradient>
    <linearGradient id="page" x1="0" y1="0" x2="0" y2="1">
      <stop offset="0" stop-color="#fffdf5"/>
      <stop offset="1" stop-color="#f3ead0"/>
    </linearGradient>
  </defs>
  <rect width="1200" height="675" fill="url(#bg)"/>
  <circle cx="600" cy="315" r="225" fill="#ffffff" opacity=".38"/>
  <path d="M600 490c-90-78-199-104-325-76V226c126-28 235-2 325 76z" fill="url(#page)" stroke="#36765a" stroke-width="14" stroke-linejoin="round"/>
  <path d="M600 490c90-78 199-104 325-76V226c-126-28-235-2-325 76z" fill="url(#page)" stroke="#36765a" stroke-width="14" stroke-linejoin="round"/>
  <path d="M600 302v188" stroke="#36765a" stroke-width="12" stroke-linecap="round"/>
  <path d="M349 286c73-7 138 7 194 41M349 333c73-7 138 7 194 41M851 286c-73-7-138 7-194 41M851 333c-73-7-138 7-194 41" fill="none" stroke="#92b9a5" stroke-width="10" stroke-linecap="round"/>
  <path d="M600 168l14 30 32 4-24 22 7 32-29-16-29 16 7-32-24-22 32-4z" fill="#c49a3a"/>
</svg>
